<?xml version="1.0" standalone="no"?>
<!DOCTYPE svg PUBLIC "-//W3C//DTD SVG 20010904//EN"
 "http://www.w3.org/TR/2001/REC-SVG-20010904/DTD/svg10.dtd">
<svg version="1.0" xmlns="http://www.w3.org/2000/svg"
 width="124.000000pt" height="124.000000pt" viewBox="0 0 124.000000 124.000000"
 preserveAspectRatio="xMidYMid meet">
<metadata>
Created by potrace 1.11, written by Peter Selinger 2001-2013
</metadata>
<g transform="translate(0.000000,124.000000) scale(0.100000,-0.100000)"
fill="#000000" stroke="none">
<path d="M961 1014 c-18 -13 -36 -15 -86 -10 -59 6 -64 5 -83 -19 -20 -25 -42
-33 -42 -15 0 20 -27 9 -60 -25 -31 -32 -39 -35 -88 -35 -54 0 -113 -23 -155
-61 -10 -9 -36 -19 -58 -23 -27 -4 -51 -18 -79 -46 -22 -22 -46 -40 -53 -40
-19 0 -37 -21 -37 -42 0 -10 -11 -23 -24 -27 -26 -11 -36 -30 -36 -70 0 -15
-9 -36 -20 -46 -23 -21 -26 -35 -6 -35 7 0 27 -22 43 -49 35 -56 132 -137 213
-178 103 -52 313 -38 426 29 21 12 68 52 104 88 52 51 72 80 94 135 53 132 44
308 -20 392 -20 27 -23 36 -14 53 17 31 8 42 -19 24z"/>
</g>
</svg>
